<svg xmlns="http://www.w3.org/2000/svg" viewBox="0 0 1500 1500" preserveAspectRatio="xMidYMid meet">
  <g transform="matrix(1, 0, 0, 1, 271, 246)" fill="#1f761e">
    <g transform="translate(1.53461, 682.835039)">
      <path d="M 79.46875 256.265625 C 68.425781 244.347656 62.242188 229.78125 60.921875 212.5625 C 59.597656 195.34375 59.816406 179.226562 61.578125 164.21875 C 66.441406 124.050781 78.144531 86.304688 96.6875 50.984375 C 106.394531 32.003906 118.09375 13.6875 131.78125 -3.96875 C 137.519531 -11.476562 144.691406 -19.203125 153.296875 -27.140625 C 161.910156 -35.085938 166.4375 -43.695312 166.875 -52.96875 C 157.601562 -43.257812 147.003906 -33.988281 135.078125 -25.15625 C 123.160156 -16.332031 110.910156 -9.929688 98.328125 -5.953125 C 85.753906 -1.984375 73.394531 -1.765625 61.25 -5.296875 C 49.113281 -8.828125 38.1875 -17.878906 28.46875 -32.453125 C 18.320312 -47.460938 12.363281 -63.796875 10.59375 -81.453125 C 8.832031 -99.109375 10.046875 -116.765625 14.234375 -134.421875 C 18.429688 -152.085938 24.28125 -168.425781 31.78125 -183.4375 C 41.050781 -200.644531 52.75 -215.984375 66.875 -229.453125 C 81.007812 -242.921875 97.015625 -252.410156 114.890625 -257.921875 C 132.773438 -263.441406 151.867188 -262.890625 172.171875 -256.265625 C 194.679688 -249.648438 211.457031 -238.613281 222.5 -223.15625 C 233.539062 -207.707031 241.15625 -190.050781 245.34375 -170.1875 C 249.539062 -150.320312 251.859375 -130.234375 252.296875 -109.921875 C 257.148438 -113.015625 264.765625 -117.539062 275.140625 -123.5 C 285.515625 -129.457031 296.882812 -135.082031 309.25 -140.375 C 321.613281 -145.675781 333.644531 -149.429688 345.34375 -151.640625 C 357.039062 -153.847656 366.75 -152.960938 374.46875 -148.984375 C 382.195312 -145.015625 386.503906 -136.628906 387.390625 -123.828125 C 388.273438 -112.796875 385.847656 -102.972656 380.109375 -94.359375 C 374.367188 -85.753906 367.300781 -78.140625 358.90625 -71.515625 C 350.519531 -64.890625 342.132812 -58.929688 333.75 -53.640625 C 327.125 -49.660156 320.390625 -45.796875 313.546875 -42.046875 C 306.703125 -38.296875 299.75 -34.4375 292.6875 -30.46875 L 271.5 -16.5625 C 265.757812 -12.582031 261.566406 -9.597656 258.921875 -7.609375 C 256.273438 -5.628906 254.285156 -3.203125 252.953125 -0.328125 C 251.628906 2.535156 250.085938 7.28125 248.328125 13.90625 C 243.472656 33.769531 239.71875 54.078125 237.0625 74.828125 C 234.414062 95.578125 231.101562 115.992188 227.125 136.078125 C 223.15625 156.171875 217.085938 175.488281 208.921875 194.03125 C 200.753906 212.570312 188.503906 229.785156 172.171875 245.671875 C 163.785156 254.066406 154.179688 260.910156 143.359375 266.203125 C 132.546875 271.503906 121.617188 273.710938 110.578125 272.828125 C 99.546875 271.941406 89.175781 266.421875 79.46875 256.265625 Z M 145.6875 -107.9375 C 153.1875 -116.769531 159.914062 -126.703125 165.875 -137.734375 C 171.84375 -148.773438 177.253906 -159.59375 182.109375 -170.1875 C 168.421875 -172.832031 155.285156 -170.289062 142.703125 -162.5625 C 130.117188 -154.84375 120.738281 -144.582031 114.5625 -131.78125 C 109.707031 -122.0625 108.382812 -113.78125 110.59375 -106.9375 C 112.800781 -100.101562 117.210938 -96.351562 123.828125 -95.6875 C 130.453125 -95.019531 137.738281 -99.101562 145.6875 -107.9375 Z M 119.859375 202.640625 C 124.710938 203.515625 129.457031 200.195312 134.09375 192.6875 C 138.726562 185.1875 143.03125 176.03125 147 165.21875 C 150.976562 154.40625 154.070312 144.472656 156.28125 135.421875 C 158.488281 126.367188 159.8125 120.960938 160.25 119.203125 C 161.132812 112.578125 161.6875 105.953125 161.90625 99.328125 C 162.125 92.703125 162.457031 86.082031 162.90625 79.46875 C 161.132812 81.675781 157.597656 87.191406 152.296875 96.015625 C 147.003906 104.847656 141.378906 115.003906 135.421875 126.484375 C 129.460938 137.960938 124.273438 149.328125 119.859375 160.578125 C 115.441406 171.835938 112.898438 181.441406 112.234375 189.390625 C 111.578125 197.335938 114.117188 201.753906 119.859375 202.640625 Z"/>
    </g>
    <g transform="translate(384.285937, 682.835039)">
      <path d="M 16.5625 -314.546875 C 11.257812 -324.253906 9.597656 -333.742188 11.578125 -343.015625 C 13.566406 -352.285156 17.648438 -359.789062 23.828125 -365.53125 C 30.015625 -371.269531 37.191406 -373.695312 45.359375 -372.8125 C 53.523438 -371.9375 61.140625 -366.203125 68.203125 -355.609375 C 75.710938 -345.003906 78.472656 -334.847656 76.484375 -325.140625 C 74.492188 -315.429688 69.96875 -307.707031 62.90625 -301.96875 C 55.84375 -296.226562 47.894531 -294.019531 39.0625 -295.34375 C 30.238281 -296.664062 22.738281 -303.066406 16.5625 -314.546875 Z M 64.890625 -7.28125 C 54.742188 -0.21875 46.359375 1.988281 39.734375 -0.65625 C 33.109375 -3.3125 27.921875 -8.832031 24.171875 -17.21875 C 20.421875 -25.601562 17.550781 -35.09375 15.5625 -45.6875 C 13.570312 -56.28125 12.351562 -66.320312 11.90625 -75.8125 C 11.46875 -85.3125 11.03125 -92.269531 10.59375 -96.6875 C 10.15625 -111.695312 10.265625 -126.816406 10.921875 -142.046875 C 11.585938 -157.273438 12.363281 -172.394531 13.25 -187.40625 C 13.6875 -195.351562 13.90625 -204.289062 13.90625 -214.21875 C 13.90625 -224.15625 14.894531 -233.644531 16.875 -242.6875 C 18.863281 -251.738281 22.953125 -259.132812 29.140625 -264.875 C 39.296875 -275.03125 47.90625 -279.554688 54.96875 -278.453125 C 62.03125 -277.347656 67.765625 -272.820312 72.171875 -264.875 C 76.585938 -256.9375 80.007812 -247.554688 82.4375 -236.734375 C 84.875 -225.921875 86.640625 -215.328125 87.734375 -204.953125 C 88.835938 -194.578125 89.613281 -186.738281 90.0625 -181.4375 C 92.269531 -163.34375 92.707031 -145.351562 91.375 -127.46875 C 90.050781 -109.59375 88.066406 -91.601562 85.421875 -73.5 C 84.535156 -67.320312 83.648438 -59.816406 82.765625 -50.984375 C 81.890625 -42.160156 80.238281 -33.773438 77.8125 -25.828125 C 75.382812 -17.878906 71.078125 -11.695312 64.890625 -7.28125 Z"/>
    </g>
    <g transform="translate(471.696225, 682.835039)">
      <path d="M 79.46875 256.265625 C 68.425781 244.347656 62.242188 229.78125 60.921875 212.5625 C 59.597656 195.34375 59.816406 179.226562 61.578125 164.21875 C 66.441406 124.050781 78.144531 86.304688 96.6875 50.984375 C 106.394531 32.003906 118.09375 13.6875 131.78125 -3.96875 C 137.519531 -11.476562 144.691406 -19.203125 153.296875 -27.140625 C 161.910156 -35.085938 166.4375 -43.695312 166.875 -52.96875 C 157.601562 -43.257812 147.003906 -33.988281 135.078125 -25.15625 C 123.160156 -16.332031 110.910156 -9.929688 98.328125 -5.953125 C 85.753906 -1.984375 73.394531 -1.765625 61.25 -5.296875 C 49.113281 -8.828125 38.1875 -17.878906 28.46875 -32.453125 C 18.320312 -47.460938 12.363281 -63.796875 10.59375 -81.453125 C 8.832031 -99.109375 10.046875 -116.765625 14.234375 -134.421875 C 18.429688 -152.085938 24.28125 -168.425781 31.78125 -183.4375 C 41.050781 -200.644531 52.75 -215.984375 66.875 -229.453125 C 81.007812 -242.921875 97.015625 -252.410156 114.890625 -257.921875 C 132.773438 -263.441406 151.867188 -262.890625 172.171875 -256.265625 C 194.679688 -249.648438 211.457031 -238.613281 222.5 -223.15625 C 233.539062 -207.707031 241.15625 -190.050781 245.34375 -170.1875 C 249.539062 -150.320312 251.859375 -130.234375 252.296875 -109.921875 C 257.148438 -113.015625 264.765625 -117.539062 275.140625 -123.5 C 285.515625 -129.457031 296.882812 -135.082031 309.25 -140.375 C 321.613281 -145.675781 333.644531 -149.429688 345.34375 -151.640625 C 357.039062 -153.847656 366.75 -152.960938 374.46875 -148.984375 C 382.195312 -145.015625 386.503906 -136.628906 387.390625 -123.828125 C 388.273438 -112.796875 385.847656 -102.972656 380.109375 -94.359375 C 374.367188 -85.753906 367.300781 -78.140625 358.90625 -71.515625 C 350.519531 -64.890625 342.132812 -58.929688 333.75 -53.640625 C 327.125 -49.660156 320.390625 -45.796875 313.546875 -42.046875 C 306.703125 -38.296875 299.75 -34.4375 292.6875 -30.46875 L 271.5 -16.5625 C 265.757812 -12.582031 261.566406 -9.597656 258.921875 -7.609375 C 256.273438 -5.628906 254.285156 -3.203125 252.953125 -0.328125 C 251.628906 2.535156 250.085938 7.28125 248.328125 13.90625 C 243.472656 33.769531 239.71875 54.078125 237.0625 74.828125 C 234.414062 95.578125 231.101562 115.992188 227.125 136.078125 C 223.15625 156.171875 217.085938 175.488281 208.921875 194.03125 C 200.753906 212.570312 188.503906 229.785156 172.171875 245.671875 C 163.785156 254.066406 154.179688 260.910156 143.359375 266.203125 C 132.546875 271.503906 121.617188 273.710938 110.578125 272.828125 C 99.546875 271.941406 89.175781 266.421875 79.46875 256.265625 Z M 145.6875 -107.9375 C 153.1875 -116.769531 159.914062 -126.703125 165.875 -137.734375 C 171.84375 -148.773438 177.253906 -159.59375 182.109375 -170.1875 C 168.421875 -172.832031 155.285156 -170.289062 142.703125 -162.5625 C 130.117188 -154.84375 120.738281 -144.582031 114.5625 -131.78125 C 109.707031 -122.0625 108.382812 -113.78125 110.59375 -106.9375 C 112.800781 -100.101562 117.210938 -96.351562 123.828125 -95.6875 C 130.453125 -95.019531 137.738281 -99.101562 145.6875 -107.9375 Z M 119.859375 202.640625 C 124.710938 203.515625 129.457031 200.195312 134.09375 192.6875 C 138.726562 185.1875 143.03125 176.03125 147 165.21875 C 150.976562 154.40625 154.070312 144.472656 156.28125 135.421875 C 158.488281 126.367188 159.8125 120.960938 160.25 119.203125 C 161.132812 112.578125 161.6875 105.953125 161.90625 99.328125 C 162.125 92.703125 162.457031 86.082031 162.90625 79.46875 C 161.132812 81.675781 157.597656 87.191406 152.296875 96.015625 C 147.003906 104.847656 141.378906 115.003906 135.421875 126.484375 C 129.460938 137.960938 124.273438 149.328125 119.859375 160.578125 C 115.441406 171.835938 112.898438 181.441406 112.234375 189.390625 C 111.578125 197.335938 114.117188 201.753906 119.859375 202.640625 Z"/>
    </g>
    <g transform="translate(854.447552, 682.835039)">
      <path d="M 16.5625 -314.546875 C 11.257812 -324.253906 9.597656 -333.742188 11.578125 -343.015625 C 13.566406 -352.285156 17.648438 -359.789062 23.828125 -365.53125 C 30.015625 -371.269531 37.191406 -373.695312 45.359375 -372.8125 C 53.523438 -371.9375 61.140625 -366.203125 68.203125 -355.609375 C 75.710938 -345.003906 78.472656 -334.847656 76.484375 -325.140625 C 74.492188 -315.429688 69.96875 -307.707031 62.90625 -301.96875 C 55.84375 -296.226562 47.894531 -294.019531 39.0625 -295.34375 C 30.238281 -296.664062 22.738281 -303.066406 16.5625 -314.546875 Z M 64.890625 -7.28125 C 54.742188 -0.21875 46.359375 1.988281 39.734375 -0.65625 C 33.109375 -3.3125 27.921875 -8.832031 24.171875 -17.21875 C 20.421875 -25.601562 17.550781 -35.09375 15.5625 -45.6875 C 13.570312 -56.28125 12.351562 -66.320312 11.90625 -75.8125 C 11.46875 -85.3125 11.03125 -92.269531 10.59375 -96.6875 C 10.15625 -111.695312 10.265625 -126.816406 10.921875 -142.046875 C 11.585938 -157.273438 12.363281 -172.394531 13.25 -187.40625 C 13.6875 -195.351562 13.90625 -204.289062 13.90625 -214.21875 C 13.90625 -224.15625 14.894531 -233.644531 16.875 -242.6875 C 18.863281 -251.738281 22.953125 -259.132812 29.140625 -264.875 C 39.296875 -275.03125 47.90625 -279.554688 54.96875 -278.453125 C 62.03125 -277.347656 67.765625 -272.820312 72.171875 -264.875 C 76.585938 -256.9375 80.007812 -247.554688 82.4375 -236.734375 C 84.875 -225.921875 86.640625 -215.328125 87.734375 -204.953125 C 88.835938 -194.578125 89.613281 -186.738281 90.0625 -181.4375 C 92.269531 -163.34375 92.707031 -145.351562 91.375 -127.46875 C 90.050781 -109.59375 88.066406 -91.601562 85.421875 -73.5 C 84.535156 -67.320312 83.648438 -59.816406 82.765625 -50.984375 C 81.890625 -42.160156 80.238281 -33.773438 77.8125 -25.828125 C 75.382812 -17.878906 71.078125 -11.695312 64.890625 -7.28125 Z"/>
    </g>
  </g>
</svg>
