<svg xmlns="http://www.w3.org/2000/svg" viewBox="0 0 1500 1500" preserveAspectRatio="xMidYMid meet">
  <g transform="matrix(1, 0, 0, 1, 347, 0)" fill="#1f761e">
    <g transform="translate(3.085637, 746.469737)">
      <path d="M 194 625.625 C 167.050781 596.519531 151.957031 560.953125 148.71875 518.921875 C 145.488281 476.898438 146.03125 437.566406 150.34375 400.921875 C 162.195312 302.847656 190.757812 210.703125 236.03125 124.484375 C 259.738281 78.140625 288.300781 33.410156 321.71875 -9.703125 C 335.726562 -28.023438 353.238281 -46.882812 374.25 -66.28125 C 395.269531 -85.675781 406.316406 -106.691406 407.390625 -129.328125 C 384.753906 -105.617188 358.882812 -82.984375 329.78125 -61.421875 C 300.6875 -39.867188 270.78125 -24.242188 240.0625 -14.546875 C 209.351562 -4.847656 179.175781 -4.304688 149.53125 -12.921875 C 119.894531 -21.546875 93.222656 -43.644531 69.515625 -79.21875 C 44.722656 -115.863281 30.171875 -155.738281 25.859375 -198.84375 C 21.554688 -241.957031 24.519531 -285.066406 34.75 -328.171875 C 44.988281 -371.285156 59.269531 -411.164062 77.59375 -447.8125 C 100.226562 -489.84375 128.789062 -527.289062 163.28125 -560.15625 C 197.769531 -593.019531 236.835938 -616.1875 280.484375 -629.65625 C 324.140625 -643.132812 370.753906 -641.789062 420.328125 -625.625 C 475.296875 -609.457031 516.25 -582.515625 543.1875 -544.796875 C 570.125 -507.078125 588.710938 -463.96875 598.953125 -415.46875 C 609.191406 -366.976562 614.847656 -317.941406 615.921875 -268.359375 C 627.773438 -275.898438 646.363281 -286.945312 671.6875 -301.5 C 697.019531 -316.050781 724.773438 -329.789062 754.953125 -342.71875 C 785.128906 -355.65625 814.5 -364.816406 843.0625 -370.203125 C 871.625 -375.597656 895.332031 -373.441406 914.1875 -363.734375 C 933.050781 -354.035156 943.5625 -333.5625 945.71875 -302.3125 C 947.875 -275.363281 941.945312 -251.378906 927.9375 -230.359375 C 913.925781 -209.347656 896.679688 -190.757812 876.203125 -174.59375 C 855.722656 -158.425781 835.242188 -143.878906 814.765625 -130.953125 C 798.597656 -121.242188 782.160156 -111.8125 765.453125 -102.65625 C 748.753906 -93.5 731.785156 -84.066406 714.546875 -74.359375 L 662.8125 -40.421875 C 648.800781 -30.710938 638.5625 -23.429688 632.09375 -18.578125 C 625.625 -13.734375 620.769531 -7.804688 617.53125 -0.796875 C 614.300781 6.203125 610.53125 17.785156 606.21875 33.953125 C 594.363281 82.453125 585.203125 132.023438 578.734375 182.671875 C 572.273438 233.328125 564.191406 283.175781 554.484375 332.21875 C 544.785156 381.257812 529.96875 428.410156 510.03125 473.671875 C 490.101562 518.929688 460.203125 560.960938 420.328125 599.765625 C 399.847656 620.234375 376.40625 636.9375 350 649.875 C 323.59375 662.8125 296.914062 668.203125 269.96875 666.046875 C 243.03125 663.890625 217.707031 650.414062 194 625.625 Z M 355.65625 -263.515625 C 373.976562 -285.066406 390.414062 -309.3125 404.96875 -336.25 C 419.519531 -363.195312 432.722656 -389.609375 444.578125 -415.484375 C 411.160156 -421.941406 379.09375 -415.738281 348.375 -396.875 C 317.664062 -378.019531 294.765625 -352.96875 279.671875 -321.71875 C 267.816406 -298 264.582031 -277.785156 269.96875 -261.078125 C 275.363281 -244.378906 286.144531 -235.21875 302.3125 -233.59375 C 318.476562 -231.976562 336.257812 -241.953125 355.65625 -263.515625 Z M 292.609375 494.6875 C 304.460938 496.84375 316.046875 488.757812 327.359375 470.4375 C 338.679688 452.113281 349.191406 429.75 358.890625 403.34375 C 368.585938 376.945312 376.128906 352.703125 381.515625 330.609375 C 386.910156 308.515625 390.148438 295.3125 391.234375 291 C 393.378906 274.832031 394.722656 258.664062 395.265625 242.5 C 395.804688 226.332031 396.613281 210.164062 397.6875 194 C 393.382812 199.382812 384.765625 212.851562 371.828125 234.40625 C 358.890625 255.96875 345.144531 280.757812 330.59375 308.78125 C 316.050781 336.800781 303.390625 364.550781 292.609375 392.03125 C 281.835938 419.519531 275.640625 442.960938 274.015625 462.359375 C 272.398438 481.753906 278.597656 492.53125 292.609375 494.6875 Z M 292.609375 494.6875 "/>
    </g>
  </g>
</svg>
